<svg xmlns="http://www.w3.org/2000/svg" viewBox="0 0 167.89 176.43"><title>logo-propnex</title><g id="Layer_2" data-name="Layer 2"><g id="Layer_2-2" data-name="Layer 2"><path d="M15.73 163.93a5.21 5.21 0 0 0-1.37-.83 3.65 3.65 0 0 0-1.33-.27 2.16 2.16 0 0 0-1.33.39 1.21 1.21 0 0 0-.52 1 1 1 0 0 0 .26.71 2.24 2.24 0 0 0 .68.48 5.69 5.69 0 0 0 .94.35l1 .32a6.5 6.5 0 0 1 3 1.84 4.53 4.53 0 0 1 1 3 5.83 5.83 0 0 1-.42 2.26 4.7 4.7 0 0 1-1.22 1.73 5.65 5.65 0 0 1-2 1.12 8.22 8.22 0 0 1-2.65.4 9.75 9.75 0 0 1-5.69-1.83l1.8-3.39a7.3 7.3 0 0 0 1.87 1.25 4.5 4.5 0 0 0 1.83.41 2.17 2.17 0 0 0 1.54-.47 1.46 1.46 0 0 0 .38-1.71 1.37 1.37 0 0 0-.43-.49 3.44 3.44 0 0 0-.78-.42c-.32-.13-.71-.27-1.17-.43s-1.08-.36-1.6-.57a5 5 0 0 1-1.4-.83 3.83 3.83 0 0 1-1-1.3 4.6 4.6 0 0 1-.38-2 5.73 5.73 0 0 1 .4-2.18 4.86 4.86 0 0 1 1.12-1.68 5 5 0 0 1 1.76-1.08 6.66 6.66 0 0 1 2.33-.39 10.19 10.19 0 0 1 2.51.33 11.07 11.07 0 0 1 2.51 1zM27.16 159.78V176h-4.21v-16.22zM32.79 176v-16.22H37l7.78 9.9v-9.9H49V176h-4.23L37 166.08V176zM62.77 166.91h8.35a23.35 23.35 0 0 1-.11 2.34 8.31 8.31 0 0 1-.43 2 7.8 7.8 0 0 1-1.22 2.24 7.15 7.15 0 0 1-1.81 1.63 8.49 8.49 0 0 1-2.29 1 9.84 9.84 0 0 1-2.62.34 9.2 9.2 0 0 1-3.45-.62 7.78 7.78 0 0 1-2.67-1.75 7.93 7.93 0 0 1-1.74-2.71 10.11 10.11 0 0 1 0-7 7.61 7.61 0 0 1 1.74-2.7 7.9 7.9 0 0 1 2.71-1.68 9.64 9.64 0 0 1 3.54-.62 8.79 8.79 0 0 1 4.45 1.1 7.59 7.59 0 0 1 3 3.39l-4 1.65a4.07 4.07 0 0 0-1.45-1.91 3.64 3.64 0 0 0-2-.58 4.08 4.08 0 0 0-1.72.35 3.72 3.72 0 0 0-1.32 1 4.85 4.85 0 0 0-.86 1.58 6.41 6.41 0 0 0-.31 2.06 6.52 6.52 0 0 0 .27 1.91 4.32 4.32 0 0 0 .81 1.53 3.63 3.63 0 0 0 1.33 1 4.5 4.5 0 0 0 1.85.35 5.09 5.09 0 0 0 1.2-.14 3.15 3.15 0 0 0 1-.45 2.56 2.56 0 0 0 .76-.81 3.25 3.25 0 0 0 .41-1.2h-3.42zM85.34 173.16h-6l-1 2.81h-4.47L80 159.78h4.6L90.8 176h-4.49zM84.23 170l-1.89-5.39-1.89 5.39zM99.09 176h-4.21v-16.22h6.7a5.73 5.73 0 0 1 4.18 1.42 6.23 6.23 0 0 1 0 8 5.73 5.73 0 0 1-4.18 1.42h-2.49zm0-8.76h1.4q2.32 0 2.32-2t-2.32-2h-1.4zM110.94 167.88a8.34 8.34 0 0 1 5.34-7.89 10.29 10.29 0 0 1 7.23 0 8.54 8.54 0 0 1 2.85 1.81 8.31 8.31 0 0 1 1.86 2.72 8.82 8.82 0 0 1 0 6.72 8.31 8.31 0 0 1-1.86 2.72 8.54 8.54 0 0 1-2.85 1.81 10.29 10.29 0 0 1-7.23 0 8.38 8.38 0 0 1-5.34-7.89zm4.4 0a4.31 4.31 0 0 0 .37 1.78 4.46 4.46 0 0 0 2.44 2.35 4.78 4.78 0 0 0 3.5 0 4.59 4.59 0 0 0 1.46-.93 4.42 4.42 0 0 0 1-1.42 4.54 4.54 0 0 0 0-3.57 4.42 4.42 0 0 0-1-1.42 4.61 4.61 0 0 0-1.46-.93 4.78 4.78 0 0 0-3.5 0 4.46 4.46 0 0 0-2.44 2.35 4.31 4.31 0 0 0-.36 1.79zM147.24 176H142l-4-6.23V176h-4.21v-16.22h6.55a6.44 6.44 0 0 1 2.36.4 4.45 4.45 0 0 1 2.65 2.67 5.55 5.55 0 0 1 .33 1.93 4.75 4.75 0 0 1-.89 3 4.49 4.49 0 0 1-2.63 1.56zm-9.24-9h.79a3.07 3.07 0 0 0 1.91-.52 2 2 0 0 0 0-3 3.07 3.07 0 0 0-1.91-.52H138zM160.45 163.35h-5v2.71h4.73v3.57h-4.73v2.79h5V176h-9.21v-16.22h9.21z"/><g><path fill="#00aeef" d="M6.69 91.93h154.1L83.5 135.37 6.69 91.93zM6.69 43.45h154.1L83.5 0 6.69 43.45z"/><path d="M.07 50.72h14.28c7.53 0 10.19 5.51 10.18 9.47 0 6.72-4.52 9.87-10.88 9.87h-5v8.38H.07zm8.54 12.73h3.3c2.21 0 4.54-.15 4.54-2.95 0-2.51-1.94-2.68-4-2.68H8.61zM27.27 58.3h7.39v3.22h.06c1.26-2.41 2.88-3.74 5.67-3.74a9 9 0 0 1 2.26.32v6.8a7.7 7.7 0 0 0-3-.51c-3 0-4.66 1.79-4.66 6.1v8h-7.7zM54 78.95c-7.55 0-11-5-11-10.6s3.4-10.57 11-10.57 11 5 11 10.57-3.47 10.6-11 10.6zm0-15.58c-2.91 0-3.28 2.85-3.28 5s.37 5 3.28 5 3.3-2.86 3.3-5-.43-5-3.3-5zM68.28 58.3h7.42v2.21h.08c1-1.28 2.13-2.73 5.9-2.73 5.7 0 8.47 5.64 8.47 10.68 0 4.75-1.84 10.49-8.59 10.49A6.61 6.61 0 0 1 76 76.23V85h-7.7zm10.8 15.05c2.76 0 3.38-2.6 3.38-5s-.62-5-3.38-5-3.38 2.61-3.38 5 .63 5 3.38 5zM93.6 50.72h8.74l8.08 14.84h.07V50.72h8.08v27.72h-8.3l-8.52-15.14h-.07v15.14H93.6zM129.4 70.09c.19 2.29 1.5 3.92 3.92 3.92a3.88 3.88 0 0 0 3.23-1.42h7.17c-1.55 4.35-5.78 6.37-10.36 6.37-6.45 0-11.3-3.81-11.3-10.53a10.34 10.34 0 0 1 10.64-10.65c8 0 11.45 4.47 11.45 12.31zm7.37-4a3.31 3.31 0 0 0-3.37-3.38 3.64 3.64 0 0 0-4 3.38zM151.77 67.83l-6.34-9.53h8.46l2.21 4 2.25-4h8.23l-6.33 9.53 7.14 10.61h-8.46L156 73.5l-2.83 4.94h-8.43zM162.35 127.94h2c.91 0 1.39.42 1.39 1.12a1 1 0 0 1-.69 1.06c.25 0 .61.22.61.88a1.93 1.93 0 0 0 .23 1.1h-.78a1.15 1.15 0 0 1-.11-.62c0-.77-.16-1.1-.83-1.1h-1.08v1.72h-.74zm.74 1.91h1.2a.63.63 0 0 0 .72-.68c0-.53-.34-.65-.72-.65h-1.19z"/><path d="M163.82 126a4.08 4.08 0 1 0 4.07 4.07 4.09 4.09 0 0 0-4.07-4.07zm0 7.71a3.63 3.63 0 1 1 3.65-3.64 3.63 3.63 0 0 1-3.65 3.6z"/><g><path d="M0 147.7l3.63-.22a2.82 2.82 0 0 0 .47 1.34 2 2 0 0 0 1.69.76 1.86 1.86 0 0 0 1.26-.39 1.14 1.14 0 0 0 .43-.89 1.12 1.12 0 0 0-.41-.86 4.88 4.88 0 0 0-2-.73 8.24 8.24 0 0 1-3.58-1.5 3.05 3.05 0 0 1-1.08-2.4A3.31 3.31 0 0 1 1 141a3.78 3.78 0 0 1 1.66-1.34 7.64 7.64 0 0 1 3-.49 6.21 6.21 0 0 1 3.61.89 3.83 3.83 0 0 1 1.48 2.81l-3.6.22a1.9 1.9 0 0 0-.6-1.23 1.91 1.91 0 0 0-1.26-.37 1.54 1.54 0 0 0-1 .28.89.89 0 0 0-.34.69.68.68 0 0 0 .28.53 3.14 3.14 0 0 0 1.28.46 16.31 16.31 0 0 1 3.59 1.09 3.83 3.83 0 0 1 1.57 1.38 3.52 3.52 0 0 1 .48 1.83 3.92 3.92 0 0 1-.65 2.19 4.11 4.11 0 0 1-1.8 1.56 7.51 7.51 0 0 1-3 .51c-2.1 0-3.55-.4-4.35-1.21A4.82 4.82 0 0 1 0 147.7zM22.8 148.17h-6.86a2.23 2.23 0 0 0 .44 1.24 1.62 1.62 0 0 0 1.29.58 1.85 1.85 0 0 0 1-.26 2.05 2.05 0 0 0 .6-.56l3.37.31a4.68 4.68 0 0 1-1.87 1.94 6.54 6.54 0 0 1-3.13.6 6.39 6.39 0 0 1-2.8-.51 4.13 4.13 0 0 1-1.69-1.6 4.91 4.91 0 0 1-.66-2.58 4.53 4.53 0 0 1 1.34-3.41 5.12 5.12 0 0 1 3.7-1.29 6.6 6.6 0 0 1 3 .58 4 4 0 0 1 1.69 1.69 6.22 6.22 0 0 1 .58 2.88zm-3.48-1.65a2.29 2.29 0 0 0-.54-1.42 1.66 1.66 0 0 0-2.44.22 2.4 2.4 0 0 0-.4 1.21zM24.41 142.82h3.21v1.47a3.42 3.42 0 0 1 1-1.31 2 2 0 0 1 1.21-.35 3.53 3.53 0 0 1 1.65.47l-1.05 2.45a2.71 2.71 0 0 0-1-.25 1.17 1.17 0 0 0-1.05.55 5.72 5.72 0 0 0-.53 2.94v3h-3.44zM32 142.82h3.56l1.74 5.7 1.8-5.7h3.46l-3.8 9h-3zM43.68 139.41h3.42v2.34h-3.42zm0 3.41h3.42v9h-3.42zM56 148.29l3.24.37a4.67 4.67 0 0 1-.88 1.78 4.19 4.19 0 0 1-1.57 1.16 6.13 6.13 0 0 1-2.43.42 8.86 8.86 0 0 1-2.37-.27 4.28 4.28 0 0 1-1.64-.86 4.48 4.48 0 0 1-1.07-1.41 5 5 0 0 1-.38-2.12 5.14 5.14 0 0 1 .47-2.31 4.31 4.31 0 0 1 1-1.21 4.6 4.6 0 0 1 1.22-.8 6.92 6.92 0 0 1 2.56-.4 6 6 0 0 1 3.33.78 4.23 4.23 0 0 1 1.62 2.3l-3.22.43a1.56 1.56 0 0 0-.55-.87 1.77 1.77 0 0 0-1.08-.3 1.72 1.72 0 0 0-1.37.62 2.73 2.73 0 0 0-.53 1.85 2.41 2.41 0 0 0 .52 1.68 1.72 1.72 0 0 0 1.34.58 1.8 1.8 0 0 0 1.12-.35 2.12 2.12 0 0 0 .67-1.07zM70.7 148.17h-6.86a2.2 2.2 0 0 0 .44 1.24 1.62 1.62 0 0 0 1.3.58 1.76 1.76 0 0 0 .95-.26 2 2 0 0 0 .6-.56l3.38.31a4.76 4.76 0 0 1-1.86 1.94 6.62 6.62 0 0 1-3.15.6 6.32 6.32 0 0 1-2.79-.51 4.11 4.11 0 0 1-1.7-1.6 4.86 4.86 0 0 1-.67-2.58 4.57 4.57 0 0 1 1.34-3.41 5.16 5.16 0 0 1 3.71-1.29 6.53 6.53 0 0 1 3 .58 4 4 0 0 1 1.71 1.69 6.3 6.3 0 0 1 .57 2.88zm-3.48-1.65a2.28 2.28 0 0 0-.53-1.42 1.55 1.55 0 0 0-1.15-.43 1.58 1.58 0 0 0-1.31.65 2.41 2.41 0 0 0-.38 1.21zM77 139.41h4.24l2.5 4.18 2.49-4.18h4.2l-4.78 7.2v5.19h-3.84v-5.19zM89.54 147.34a4.49 4.49 0 0 1 1.38-3.34 6 6 0 0 1 7.79.23 4.57 4.57 0 0 1 1.09 3.11 4.49 4.49 0 0 1-1.37 3.39 5.21 5.21 0 0 1-3.76 1.27 5.34 5.34 0 0 1-3.5-1.1 4.45 4.45 0 0 1-1.63-3.56zm3.44 0a2.7 2.7 0 0 0 .49 1.78 1.49 1.49 0 0 0 1.21.57 1.53 1.53 0 0 0 1.22-.57 2.78 2.78 0 0 0 .47-1.81 2.6 2.6 0 0 0-.48-1.73 1.45 1.45 0 0 0-1.19-.58 1.56 1.56 0 0 0-1.23.57 2.73 2.73 0 0 0-.47 1.76zM110.87 151.81h-3.19v-1.45a4.63 4.63 0 0 1-1.45 1.28 3.75 3.75 0 0 1-1.79.39 2.91 2.91 0 0 1-2.21-.85 3.7 3.7 0 0 1-.8-2.62v-5.72h3.44v4.95a1.77 1.77 0 0 0 .32 1.2 1.1 1.1 0 0 0 .87.36 1.26 1.26 0 0 0 1-.48 2.8 2.8 0 0 0 .39-1.7v-4.32h3.42zM118.05 139.41h11.59v3.06h-3.89v9.33h-3.82v-9.33h-3.89zM130.44 142.82h3.21v1.47a3.42 3.42 0 0 1 .95-1.31 2 2 0 0 1 1.22-.35 3.55 3.55 0 0 1 1.66.47l-1.05 2.45a2.72 2.72 0 0 0-1-.25 1.19 1.19 0 0 0-1 .55 5.67 5.67 0 0 0-.53 2.94v3h-3.44zM148 151.81h-3.2v-1.46a4.47 4.47 0 0 1-1.45 1.28 3.72 3.72 0 0 1-1.79.39 2.88 2.88 0 0 1-2.21-.85 3.68 3.68 0 0 1-.81-2.62v-5.72H142v4.95a1.86 1.86 0 0 0 .31 1.2 1.11 1.11 0 0 0 .87.36 1.28 1.28 0 0 0 1-.48 2.83 2.83 0 0 0 .38-1.7v-4.32H148zM149.51 149.32l3.39-.33a1.65 1.65 0 0 0 .59.87 2.06 2.06 0 0 0 2.08 0 .67.67 0 0 0 .3-.55.65.65 0 0 0-.38-.58 7.42 7.42 0 0 0-1.48-.35 14.76 14.76 0 0 1-2.48-.58 2.6 2.6 0 0 1-1.17-.9 2.35 2.35 0 0 1-.48-1.44 2.38 2.38 0 0 1 .52-1.53 3.17 3.17 0 0 1 1.42-1 7.51 7.51 0 0 1 2.41-.31 8.35 8.35 0 0 1 2.36.24 3.08 3.08 0 0 1 1.28.76 4 4 0 0 1 .84 1.4l-3.24.32a1.16 1.16 0 0 0-.42-.64 1.76 1.76 0 0 0-1-.27 1.33 1.33 0 0 0-.85.21.6.6 0 0 0-.27.49.54.54 0 0 0 .34.5 5.22 5.22 0 0 0 1.47.3 10.5 10.5 0 0 1 2.54.55 2.76 2.76 0 0 1 1.27 1 2.39 2.39 0 0 1 .44 1.4 2.69 2.69 0 0 1-.47 1.51 3.06 3.06 0 0 1-1.46 1.17 7 7 0 0 1-2.74.44 6.44 6.44 0 0 1-3.48-.71 3.11 3.11 0 0 1-1.33-1.97zM164.78 139.41v3.41h1.87v2.52h-1.87v3.18a1.84 1.84 0 0 0 .1.76.65.65 0 0 0 .6.28 3.83 3.83 0 0 0 1.05-.22l.26 2.37a10.49 10.49 0 0 1-2.37.29 4.16 4.16 0 0 1-1.89-.34 2 2 0 0 1-.89-1 5.94 5.94 0 0 1-.29-2.17v-3.16h-1.27v-2.52h1.27v-1.65z"/></g></g></g></g></svg>