<svg xmlns="http://www.w3.org/2000/svg" viewBox="0 0 541.12 190.93"><title>logo-huttons</title><g id="Layer_2" data-name="Layer 2"><g id="Layer_1-2" data-name="Layer 1"><path d="M0 0h26.54v30.06h29V0h26.67v85.9H55.55V51.15h-29V85.9H0zM163.83 85.9h-22.27V75.82a32.82 32.82 0 0 1-10 8.85 26.74 26.74 0 0 1-12.45 2.64q-9.84 0-15.44-5.89T98 63.28V23.67h24v34.22q0 5.86 2.17 8.32a7.69 7.69 0 0 0 6.09 2.46 8.69 8.69 0 0 0 7-3.28Q140 62.11 140 53.61V23.67h23.85zM207.07 0v23.67h13.13v17.46h-13.13v22q0 4 .76 5.26a4.36 4.36 0 0 0 4.1 2 26.17 26.17 0 0 0 7.38-1.52l1.76 16.46a77.65 77.65 0 0 1-16.52 1.93q-8.91 0-13.12-2.28a13.92 13.92 0 0 1-6.24-6.93q-2-4.65-2-15.07V41.13h-8.79V23.67h8.79V12.25zM260.33 0v23.67h13.13v17.46h-13.13v22q0 4 .76 5.26a4.36 4.36 0 0 0 4.1 2 26.17 26.17 0 0 0 7.38-1.52l1.76 16.46a77.65 77.65 0 0 1-16.52 1.93q-8.91 0-13.12-2.28a13.92 13.92 0 0 1-6.24-6.93q-2-4.65-2-15.07V41.13h-8.79V23.67h8.79V12.25z" fill="#041e42"/><path d="M281.89 55q0-14.24 9.61-23.47t26-9.23q18.69 0 28.24 10.84 7.68 8.73 7.68 21.5 0 14.36-9.52 23.53t-26.38 9.13q-15 0-24.26-7.62-11.37-9.43-11.37-24.68zm23.91-.06q0 8.32 3.37 12.3a11 11 0 0 0 16.93.06q3.31-3.93 3.31-12.6 0-8.09-3.34-12a10.4 10.4 0 0 0-8.26-4 10.8 10.8 0 0 0-8.61 4q-3.4 4-3.4 12.2z" fill="#e57200"/><path d="M364.86 23.67h22.21v10.14a33.07 33.07 0 0 1 10.08-8.88 26.54 26.54 0 0 1 12.42-2.67q9.9 0 15.5 5.89t5.6 18.19V85.9h-24V51.68q0-5.86-2.17-8.29a7.74 7.74 0 0 0-6.06-2.39 8.67 8.67 0 0 0-7 3.28q-2.7 3.28-2.7 11.78V85.9h-23.88zM440.68 68.61l23.67-2.23a11.67 11.67 0 0 0 4.1 6 12.18 12.18 0 0 0 7 1.82q4.8 0 7.44-2a4.57 4.57 0 0 0 2.05-3.8 4.35 4.35 0 0 0-2.7-4q-1.93-1-10.25-2.46-12.42-2.17-17.26-4a18.2 18.2 0 0 1-8.14-6.23 16.18 16.18 0 0 1-3.31-10 16.39 16.39 0 0 1 3.57-10.6 21.27 21.27 0 0 1 9.84-6.64q6.27-2.19 16.82-2.2 11.13 0 16.44 1.7a21.44 21.44 0 0 1 8.85 5.27 27.62 27.62 0 0 1 5.89 9.67l-22.62 2.23a7.73 7.73 0 0 0-2.93-4.39 12 12 0 0 0-6.8-1.87q-4 0-5.89 1.43a4.28 4.28 0 0 0-1.85 3.48 3.71 3.71 0 0 0 2.4 3.44q2.34 1.17 10.2 2.11 11.89 1.35 17.7 3.75a19.51 19.51 0 0 1 8.88 6.85 16.82 16.82 0 0 1 3.08 9.77 19.23 19.23 0 0 1-3.25 10.48q-3.25 5.09-10.25 8.11t-19.07 3q-17.05 0-24.29-4.86a21.86 21.86 0 0 1-9.32-13.83zM526.1 1.88a15.42 15.42 0 0 1 7.39 1.94 13.81 13.81 0 0 1 5.62 5.56 15.11 15.11 0 0 1 0 15 14 14 0 0 1-5.53 5.62 15.11 15.11 0 0 1-15 0 14 14 0 0 1-5.58-5.6 15 15 0 0 1 0-15 13.87 13.87 0 0 1 5.63-5.56 15.42 15.42 0 0 1 7.47-1.96zm0 2.49A12.8 12.8 0 0 0 519.93 6a11.64 11.64 0 0 0-4.69 4.64 12.5 12.5 0 0 0 0 12.51 11.8 11.8 0 0 0 4.65 4.64 12.52 12.52 0 0 0 12.47 0 11.73 11.73 0 0 0 4.64-4.64 12.56 12.56 0 0 0 0-12.51A11.57 11.57 0 0 0 532.26 6a12.82 12.82 0 0 0-6.16-1.63zm-6.6 20.86V9.05h5.56a13.6 13.6 0 0 1 4.13.45 4 4 0 0 1 2 1.56 4.15 4.15 0 0 1 .76 2.37 4.31 4.31 0 0 1-1.27 3.09 5 5 0 0 1-3.32 1.48 4.44 4.44 0 0 1 1.38.86 18.53 18.53 0 0 1 2.39 3.21l2 3.17h-3.19l-1.44-2.55a13 13 0 0 0-2.73-3.77 3.36 3.36 0 0 0-2.09-.56h-1.53v6.88zm2.61-9.11h3.17a5.11 5.11 0 0 0 3.1-.68 2.32 2.32 0 0 0 .43-3.08 2.38 2.38 0 0 0-1.11-.85 8.22 8.22 0 0 0-2.62-.28h-3z" fill="#041e42"/><g fill="#041e42"><path d="M10.86 180.41v-29.74H.24v-6.05h28.45v6.05h-10.6v29.74zM40.14 144.62v13.16a10.28 10.28 0 0 1 12.21-3 7 7 0 0 1 2.86 2.22 8.16 8.16 0 0 1 1.32 3 27.08 27.08 0 0 1 .35 5.15v15.21H50v-13.7a20.29 20.29 0 0 0-.39-5.18 3.39 3.39 0 0 0-1.38-1.75 4.43 4.43 0 0 0-2.48-.65 5.69 5.69 0 0 0-3.05.83 4.79 4.79 0 0 0-2 2.5 14.94 14.94 0 0 0-.62 4.94v13h-6.8v-35.73zM78.86 172.16l6.84 1.15a11.22 11.22 0 0 1-4.17 5.69 12.23 12.23 0 0 1-7.12 2q-6.76 0-10-4.42a14.84 14.84 0 0 1-2.56-8.94q0-6.45 3.37-10.09a11.09 11.09 0 0 1 8.52-3.65 11.51 11.51 0 0 1 9.13 3.82q3.34 3.82 3.2 11.71h-17.2a6.94 6.94 0 0 0 1.66 4.75 5.19 5.19 0 0 0 4 1.7 4.2 4.2 0 0 0 2.67-.88 5.43 5.43 0 0 0 1.66-2.84zm.39-6.93a6.61 6.61 0 0 0-1.54-4.53 5 5 0 0 0-7.28.09 6.33 6.33 0 0 0-1.43 4.43zM136 180.41h-7.86l-3.14-8.13h-14.28l-3 8.13h-7.62l13.9-35.79h7.64zm-13.31-14.16L117.77 153l-4.83 13.28zM139.16 182.12l7.84 1a2.67 2.67 0 0 0 .9 1.88 5.16 5.16 0 0 0 3.08.73 8 8 0 0 0 4-.81 3.33 3.33 0 0 0 1.37-1.73 10.43 10.43 0 0 0 .32-3.15v-3.78a9.28 9.28 0 0 1-7.76 4.2 9.56 9.56 0 0 1-8.28-4.42 15 15 0 0 1-2.39-8.69q0-6.52 3.14-10a10.12 10.12 0 0 1 7.8-3.44 9.5 9.5 0 0 1 7.93 4.22v-3.64h6.42v23.27a23.19 23.19 0 0 1-.76 6.86 8.51 8.51 0 0 1-2.12 3.56 9.4 9.4 0 0 1-3.65 2 19.22 19.22 0 0 1-5.77.73q-6.59 0-9.35-2.26a7.08 7.08 0 0 1-2.76-5.72q.02-.33.04-.81zm6.13-15.21q0 4.13 1.6 6a4.94 4.94 0 0 0 3.94 1.92 5.45 5.45 0 0 0 4.25-2q1.73-2 1.73-5.82 0-4-1.66-6a5.28 5.28 0 0 0-4.2-2 5.06 5.06 0 0 0-4.06 1.92q-1.6 2.07-1.6 5.98zM185.35 172.16l6.84 1.15A11.22 11.22 0 0 1 188 179a12.23 12.23 0 0 1-7.12 2q-6.76 0-10-4.42a14.84 14.84 0 0 1-2.56-8.94q0-6.45 3.37-10.09a11.09 11.09 0 0 1 8.52-3.65 11.51 11.51 0 0 1 9.13 3.82q3.34 3.82 3.2 11.71h-17.17a6.94 6.94 0 0 0 1.66 4.75 5.19 5.19 0 0 0 4 1.7 4.2 4.2 0 0 0 2.71-.88 5.43 5.43 0 0 0 1.61-2.84zm.39-6.93a6.61 6.61 0 0 0-1.54-4.53 5 5 0 0 0-7.28.09 6.33 6.33 0 0 0-1.44 4.44zM221.73 180.41h-6.86v-13.24a20.45 20.45 0 0 0-.44-5.43 3.81 3.81 0 0 0-1.43-1.92 4.09 4.09 0 0 0-2.38-.68 5.5 5.5 0 0 0-3.2 1 4.92 4.92 0 0 0-1.94 2.59 22.37 22.37 0 0 0-.52 6v11.74h-6.86v-25.99h6.37v3.81a10.62 10.62 0 0 1 12.7-3.58 7 7 0 0 1 2.83 2.09 7.57 7.57 0 0 1 1.34 2.88 21.45 21.45 0 0 1 .38 4.61zM251.29 162.15l-6.76 1.22a4.91 4.91 0 0 0-1.55-3.05 4.68 4.68 0 0 0-3.14-1 5.12 5.12 0 0 0-4.09 1.77q-1.53 1.77-1.53 5.92 0 4.61 1.55 6.52a5.09 5.09 0 0 0 4.16 1.9 4.63 4.63 0 0 0 3.2-1.11 6.68 6.68 0 0 0 1.76-3.82l6.74 1.15a12 12 0 0 1-4 7 12.47 12.47 0 0 1-8 2.37 11.87 11.87 0 0 1-9.07-3.59q-3.38-3.59-3.38-9.94t3.39-10a12.05 12.05 0 0 1 9.18-3.58 12.52 12.52 0 0 1 7.53 2 11.29 11.29 0 0 1 4.01 6.24zM253.25 154.48h7.3l6.2 18.41 6.05-18.41h7.1l-9.16 25-1.64 4.52a18.46 18.46 0 0 1-1.72 3.47 7.52 7.52 0 0 1-1.88 1.94 8.22 8.22 0 0 1-2.61 1.16 13.58 13.58 0 0 1-3.5.42 18.2 18.2 0 0 1-3.88-.42l-.61-5.37a15.23 15.23 0 0 0 2.91.32 4.31 4.31 0 0 0 3.54-1.4 9.76 9.76 0 0 0 1.76-3.58zM296.61 167.08a14 14 0 0 1 1.68-6.62 11.56 11.56 0 0 1 4.77-4.88 14.16 14.16 0 0 1 6.9-1.68 13 13 0 0 1 9.64 3.82 13.2 13.2 0 0 1 3.76 9.66 13.36 13.36 0 0 1-3.8 9.75A12.83 12.83 0 0 1 310 181a15.05 15.05 0 0 1-6.8-1.61 11 11 0 0 1-4.92-4.72 15.74 15.74 0 0 1-1.67-7.59zm7 .37a8.59 8.59 0 0 0 1.83 5.91 6 6 0 0 0 9 0 8.71 8.71 0 0 0 1.82-6 8.55 8.55 0 0 0-1.82-5.86 6 6 0 0 0-9 0 8.59 8.59 0 0 0-1.8 5.94zM325.73 154.48h3.81v-2a13 13 0 0 1 .7-4.88 5.5 5.5 0 0 1 2.56-2.6 9.84 9.84 0 0 1 4.72-1 19.1 19.1 0 0 1 5.74.88l-.93 4.79a13.59 13.59 0 0 0-3.15-.39 2.8 2.8 0 0 0-2.14.7 4 4 0 0 0-.65 2.67v1.83h5.13v5.4h-5.12v20.53h-6.86v-20.53h-3.81zM382.23 167.25l7 2.22q-1.61 5.86-5.36 8.7a16.86 16.86 0 0 1-21.23-2q-4.59-4.87-4.59-13.32 0-8.94 4.61-13.88A15.82 15.82 0 0 1 374.8 144a14.89 14.89 0 0 1 10.67 3.88 14.12 14.12 0 0 1 3.66 6.59l-7.13 1.72a7.39 7.39 0 0 0-7.54-6A8.14 8.14 0 0 0 368 153q-2.48 2.86-2.48 9.25 0 6.79 2.44 9.67a7.93 7.93 0 0 0 6.35 2.88 7.24 7.24 0 0 0 5-1.83 10.64 10.64 0 0 0 2.92-5.72zM402.22 144.62v13.16a10.28 10.28 0 0 1 12.21-3 7 7 0 0 1 2.87 2.22 8.16 8.16 0 0 1 1.32 3 27.08 27.08 0 0 1 .35 5.15v15.21h-6.86v-13.7a20.29 20.29 0 0 0-.39-5.18 3.39 3.39 0 0 0-1.38-1.75 4.43 4.43 0 0 0-2.48-.65 5.69 5.69 0 0 0-3.05.83 4.79 4.79 0 0 0-2 2.5 14.94 14.94 0 0 0-.62 4.94v13h-6.86v-35.73zM424.34 167.08a14 14 0 0 1 1.68-6.62 11.56 11.56 0 0 1 4.77-4.88 14.16 14.16 0 0 1 6.9-1.68 13 13 0 0 1 9.64 3.82 13.2 13.2 0 0 1 3.76 9.66 13.36 13.36 0 0 1-3.8 9.75 12.83 12.83 0 0 1-9.56 3.87 15.05 15.05 0 0 1-6.8-1.61 11 11 0 0 1-4.92-4.72 15.74 15.74 0 0 1-1.67-7.59zm7 .37a8.59 8.59 0 0 0 1.83 5.91 6 6 0 0 0 9 0 8.71 8.71 0 0 0 1.82-6 8.55 8.55 0 0 0-1.82-5.86 6 6 0 0 0-9 0 8.59 8.59 0 0 0-1.8 5.94zM456.47 151v-6.35h6.86V151zm0 29.44v-25.96h6.86v25.93zM493 162.15l-6.76 1.22a4.91 4.91 0 0 0-1.55-3.05 4.68 4.68 0 0 0-3.14-1 5.12 5.12 0 0 0-4.09 1.77q-1.53 1.77-1.53 5.92 0 4.61 1.55 6.52a5.09 5.09 0 0 0 4.16 1.9 4.63 4.63 0 0 0 3.2-1.11 6.68 6.68 0 0 0 1.76-3.82l6.74 1.15a12 12 0 0 1-4 7 12.47 12.47 0 0 1-8 2.37 11.87 11.87 0 0 1-9.07-3.59q-3.38-3.59-3.38-9.94t3.39-10a12.05 12.05 0 0 1 9.18-3.58 12.52 12.52 0 0 1 7.53 2 11.29 11.29 0 0 1 4.01 6.24zM513.18 172.16l6.82 1.14a11.22 11.22 0 0 1-4.16 5.73 12.23 12.23 0 0 1-7.12 2q-6.76 0-10-4.42a14.84 14.84 0 0 1-2.56-8.94q0-6.45 3.37-10.09a11.09 11.09 0 0 1 8.52-3.65 11.51 11.51 0 0 1 9.13 3.82q3.34 3.82 3.2 11.71H503.2a6.94 6.94 0 0 0 1.66 4.75 5.19 5.19 0 0 0 4 1.7 4.2 4.2 0 0 0 2.71-.88 5.43 5.43 0 0 0 1.61-2.87zm.39-6.93a6.61 6.61 0 0 0-1.54-4.53 5 5 0 0 0-7.28.09 6.33 6.33 0 0 0-1.44 4.44z"/></g><g fill="#e57200"><path d="M304.52 105.24a1.19 1.19 0 0 1 .75.13.81.81 0 0 1 .25.71 3.79 3.79 0 0 1-.19 1.17 3.66 3.66 0 0 1-.52 1l-.81 1.29-.81 1.29-1.62 2.75-1.43 2.42q-.71 1.21-1.46 2.42t-1.52 2.25q-.77 1.13-1.44 2.33-.58 1-1.12 2t-1.12 2q-1 1.63-2.19 3.19a25.11 25.11 0 0 1-2.48 2.9 21.8 21.8 0 0 1-2.87 2.42 16.69 16.69 0 0 1-3.42 1.83 25.73 25.73 0 0 1-2.46.79 15.7 15.7 0 0 1-2.58.46c-.42.05-.84.09-1.27.1a8.41 8.41 0 0 1-1.31-.06l-.5-.06-.85-.15q-.44-.08-.79-.19c-.24-.07-.35-.15-.35-.23v.08a2.44 2.44 0 0 1-1-.71 5.69 5.69 0 0 1-.73-1 2.49 2.49 0 0 1-.25-1.56 3.28 3.28 0 0 1 .63-1.52 2.81 2.81 0 0 1 1.25-1 1.89 1.89 0 0 1 1.58.13 2.21 2.21 0 0 1 .92.83 1.51 1.51 0 0 1 .17 1.21 2.63 2.63 0 0 1-.46 1 1.26 1.26 0 0 0-.25 1 1.12 1.12 0 0 0 1 .83 6.73 6.73 0 0 0 1.33.17 6 6 0 0 0 1.69-.25 8 8 0 0 0 1.65-.69 12.1 12.1 0 0 0 1.5-1q.71-.54 1.29-1.08t.88-.85q.42-.44.79-.9 1.08-1.29 2-2.62t1.92-2.71q.62-1 1.27-1.9a8.38 8.38 0 0 0 1-2v-.31-.23a4.7 4.7 0 0 0-1.29 1.17 4.33 4.33 0 0 1-1.37 1.17 7 7 0 0 1-2.17.69 5.07 5.07 0 0 1-2.29-.15 2 2 0 0 1-1-.58 2.76 2.76 0 0 1-.56-1 4.35 4.35 0 0 1-.23-1.12 7.46 7.46 0 0 1 0-1.12 5.63 5.63 0 0 1 .42-1.67 14.07 14.07 0 0 1 .79-1.58q.75-1.38 1.63-2.71l1.75-2.67q.88-1.33 1.71-2.69t1.54-2.81a6.23 6.23 0 0 0 .29-.81 7.2 7.2 0 0 1 .29-.83 2.12 2.12 0 0 1 .46-.69 1.41 1.41 0 0 1 .79-.37 4 4 0 0 1 1.15 0 5.2 5.2 0 0 0 1.15 0 3.06 3.06 0 0 1 1 0 .82.82 0 0 1 .63.67 1.55 1.55 0 0 1-.15 1.29q-.35.58-.69 1.17l-2.08 3.31q-1 1.65-2 3.35-.54.83-1 1.69l-1 1.69q-.46.71-.94 1.42a6.67 6.67 0 0 0-.77 1.54 1.89 1.89 0 0 0-.17 1 .86.86 0 0 0 .4.6 1.39 1.39 0 0 0 .79.17 2.41 2.41 0 0 0 1-.27 6.73 6.73 0 0 0 2.06-1.6l1.73-2q.58-.71 1.17-1.54 1-1.38 1.9-2.79t1.81-2.87q.83-1.37 1.65-2.79a11.18 11.18 0 0 0 1.19-3 1.18 1.18 0 0 1 .5-.73 2.12 2.12 0 0 1 .88-.23h1.5a14.44 14.44 0 0 0 1.46.01zM304.35 125.91a4.56 4.56 0 0 1-2-.62 3.58 3.58 0 0 1-1.62-1.79 5.57 5.57 0 0 1-.35-2.31 9.59 9.59 0 0 1 .46-2.46 17.57 17.57 0 0 1 .85-2.19 23.49 23.49 0 0 1 2.81-4.81 18.1 18.1 0 0 1 4.06-3.9 16.49 16.49 0 0 1 3.19-1.77 12.89 12.89 0 0 1 3.52-.94q2-.21 2.54.88a3.85 3.85 0 0 1 .54 2.19 4.53 4.53 0 0 1-.65 2 7.28 7.28 0 0 1-1.5 1.75 17.78 17.78 0 0 1-2 1.5 17.18 17.18 0 0 1-2.15 1.19q-1.08.5-1.92.83l-1.73.67a6 6 0 0 0-1.35.71 4.13 4.13 0 0 0-1 1.06 5.8 5.8 0 0 0-.73 1.69 3.94 3.94 0 0 0-.19 1.31 2.81 2.81 0 0 0 .29 1.19 2.08 2.08 0 0 0 .77.85 2.49 2.49 0 0 0 1.33.31 4.22 4.22 0 0 0 1.54-.29 6.92 6.92 0 0 0 1.42-.75 11.12 11.12 0 0 0 1.27-1 14.14 14.14 0 0 0 1.1-1.15q1.21-1.33 2.35-2.75t2.15-2.87.31-.56a7 7 0 0 1 .48-.79 1 1 0 0 1 .5-.42q.25-.06.38.52a1.73 1.73 0 0 1-.35 1.44q-.52.73-.94 1.23-1.08 1.33-2.1 2.75t-2.15 2.71a19.09 19.09 0 0 1-2.48 2.38 11.84 11.84 0 0 1-3 1.75 9.06 9.06 0 0 1-1.77.48 6.39 6.39 0 0 1-1.88-.02zm3.5-11a3.3 3.3 0 0 0 .73-.29l.48-.25a12.59 12.59 0 0 0 2.27-1.71 17.64 17.64 0 0 0 1.9-2.08 11.48 11.48 0 0 0 1-1.42 3.57 3.57 0 0 0 .5-1.62.89.89 0 0 0-.19-.65.55.55 0 0 0-.6-.23 2.27 2.27 0 0 0-1 .6l-.83.81-.5.56-.46.52q-.67.83-1.29 1.65t-1.21 1.69l-.35.54a8.88 8.88 0 0 0-.5.88 2.56 2.56 0 0 0-.27.77q-.09.32.32.23z"/><path d="M316.31 125.79h-.08a2.43 2.43 0 0 1-1.19-.81 3.78 3.78 0 0 1-.65-1.27 5.75 5.75 0 0 1-.23-1.48 9.37 9.37 0 0 1 .06-1.44 12.22 12.22 0 0 1 .46-2.08 14.33 14.33 0 0 1 1.21-2.67 40.45 40.45 0 0 1 2.42-3.58 21.18 21.18 0 0 1 3-3.17q.46-.42 1-.79t1-.75q.79-.5 1.6-1a11.67 11.67 0 0 1 1.73-.79l1.52-.58a4.52 4.52 0 0 1 1.6-.29l.77.08a3.63 3.63 0 0 1 .77.17 1.21 1.21 0 0 1 .81.67 5.51 5.51 0 0 0 .56 1q0-.08.19-.44a3.32 3.32 0 0 1 .31-.44 1.53 1.53 0 0 1 .75-.62 3.25 3.25 0 0 1 1.4-.21 12.88 12.88 0 0 0 1.48 0 1.64 1.64 0 0 0 .67-.15.68.68 0 0 1 .67.06.5.5 0 0 1 .25.33.65.65 0 0 1 0 .4 3.73 3.73 0 0 1-.21.4l-.21.33q-1.29 1.92-2.42 3.9t-2.29 4l-.67 1.17q-.33.58-.71 1.17-.75 1.21-1.58 2.5a8.54 8.54 0 0 0-1.17 2.75 1.84 1.84 0 0 0-.08.58.53.53 0 0 0 .33.5.76.76 0 0 0 .58 0 2.45 2.45 0 0 0 .67-.33 7.25 7.25 0 0 0 .63-.48l.46-.37q.92-.87 1.75-1.75t1.67-1.83q.71-.83 1.38-1.67a19.82 19.82 0 0 0 1.25-1.75l.23-.35a1.47 1.47 0 0 1 .33-.37.75.75 0 0 1 .38-.17q.19 0 .35.23a.54.54 0 0 1 .06.44 1.69 1.69 0 0 1-.21.46 3.29 3.29 0 0 1-.31.42l-.29.31q-.42.5-.79 1a9.77 9.77 0 0 1-.83 1q-.29.42-.6.79l-.65.75q-.75.87-1.52 1.73t-1.65 1.7a15.73 15.73 0 0 1-1.35 1.27 8.06 8.06 0 0 1-1.73 1.13 4.74 4.74 0 0 1-1.83.48 2.16 2.16 0 0 1-1.67-.71 3 3 0 0 1-.9-1.62 4.48 4.48 0 0 1 0-1.87l.17-.42a.72.72 0 0 0 0-.42.7.7 0 0 0-.4.27 5.17 5.17 0 0 1-.35.4 8.16 8.16 0 0 0-.6.58l-.56.63a12.22 12.22 0 0 1-2.92 2.29 7.07 7.07 0 0 1-1.87.77 3.92 3.92 0 0 1-1.95.01zm3.83-2.92a7.83 7.83 0 0 0 2-1.4 20.89 20.89 0 0 0 1.69-1.81q1.33-1.67 2.54-3.4a41.44 41.44 0 0 0 2.25-3.6l.92-1.67a12.44 12.44 0 0 0 .79-1.75 9.09 9.09 0 0 0 .27-1.17 1.41 1.41 0 0 0-.27-1.12 1.12 1.12 0 0 0-1.21-.42 5.06 5.06 0 0 0-1.29.46 9.3 9.3 0 0 0-2.69 2.29q-1.19 1.46-2.19 2.83-.58.75-1.08 1.54t-1 1.58q-.54.79-1 1.63t-.92 1.71q-.17.38-.4.83a7.22 7.22 0 0 0-.4 1 5.23 5.23 0 0 0-.23 1 1.51 1.51 0 0 0 .15.9 1.28 1.28 0 0 0 .88.81 2 2 0 0 0 1.19-.24z"/><path d="M328.52 125.49a.84.84 0 0 1 .17-1 3.84 3.84 0 0 1 .88-.67q.54-.33 1.1-.65a8.93 8.93 0 0 0 1.1-.73 13.9 13.9 0 0 0 2.06-2 23.28 23.28 0 0 0 1.73-2.31q.62-.92 1.27-1.77t1.27-1.77q.62-1 1.21-1.9t1.21-1.9a21.31 21.31 0 0 0 1.33-2.4 26.58 26.58 0 0 1 1.29-2.4 2.77 2.77 0 0 1 .73-.87q.4-.29 1.06.17a4.47 4.47 0 0 0 3 .79 18.15 18.15 0 0 0 3.13-.62 1.35 1.35 0 0 1 .88 0 .66.66 0 0 1 .38.75 1.77 1.77 0 0 1-.54 1.1q-.5.52-.83.94-.5.58-1 1.15l-.92 1.15a52.8 52.8 0 0 0-3.29 5q-.46.75-.85 1.5t-.73 1.5a7.21 7.21 0 0 0-.37.81 9 9 0 0 0-.42 1.27 4.3 4.3 0 0 0-.15 1.21.64.64 0 0 0 .48.67 1.51 1.51 0 0 0 .9 0 3.75 3.75 0 0 0 .85-.42 4.77 4.77 0 0 0 .77-.62l.65-.65a22.41 22.41 0 0 0 2.35-2.87q1.06-1.54 2.15-3l.56-.79a.86.86 0 0 1 .77-.46c.33 0 .48.19.44.48a2.82 2.82 0 0 1-.35 1 7.92 7.92 0 0 1-.65 1c-.24.31-.4.5-.48.58l-1.17 1.48-1.17 1.44q-.46.63-1 1.27t-1 1.23a18.85 18.85 0 0 1-2.4 2.31 6.79 6.79 0 0 1-3 1.4 5.59 5.59 0 0 1-1.19 0 3.44 3.44 0 0 1-1.1-.25 2.75 2.75 0 0 1-.9-.6 2.21 2.21 0 0 1-.56-1 4.5 4.5 0 0 1-.17-1.48 6.3 6.3 0 0 1 .25-1.44 14.22 14.22 0 0 1 .5-1.42 14.54 14.54 0 0 1 .63-1.33 15.22 15.22 0 0 1 2.38-3.5q1.46-1.63 2.92-3.08a6.59 6.59 0 0 1 .77-.62 1.73 1.73 0 0 0 .65-.71c.08-.17.09-.27 0-.31a.57.57 0 0 0-.29-.06 2.39 2.39 0 0 0-.42 0h-.35a1.6 1.6 0 0 1-.79-.21 2.76 2.76 0 0 0-.79-.29 1 1 0 0 0-.9.25 5.37 5.37 0 0 0-.6.79q-.37.58-.75 1.21l-.75 1.25q-.79 1.33-1.6 2.6t-1.73 2.52q-.5.71-1 1.38T335 121q-.17.17-.62.71t-1.1 1.21q-.65.67-1.4 1.33a14.78 14.78 0 0 1-1.42 1.13 3 3 0 0 1-1.21.54.63.63 0 0 1-.73-.43z"/><path d="M350.23 125.87l-.83-.19a2.83 2.83 0 0 1-.77-.31 2.5 2.5 0 0 1-.62-.52 1.92 1.92 0 0 1-.4-.77 2.23 2.23 0 0 1 .13-1.52 2.92 2.92 0 0 1 1-1.23q.71-.5 1-.17a2.38 2.38 0 0 1 .46 1q.17.63.33 1.29a1.07 1.07 0 0 0 .63.83 1.12 1.12 0 0 0 .94-.08 3.44 3.44 0 0 0 .9-.69 7 7 0 0 0 .75-.94l.54-.83a13.07 13.07 0 0 0 1.15-2.54q.44-1.33.77-2.67.46-1.79 1-3.65a23.35 23.35 0 0 0 .73-3.73 1.47 1.47 0 0 0-.42.42 2.48 2.48 0 0 0-.29.5 7.66 7.66 0 0 1-.5.6 7.82 7.82 0 0 0-.5.6q-.46.58-.85 1.19t-.85 1.19l-1.73 2.27q-.9 1.19-1.77 2.31l-1.58 2q-.79 1-1.67 2-.87 1-1.81 1.85a11.09 11.09 0 0 1-2 1.5 1.88 1.88 0 0 1-.67.33 1 1 0 0 1-.75 0 .49.49 0 0 1-.25-.33 1.26 1.26 0 0 1 0-.46 1.89 1.89 0 0 1 .15-.48l.19-.4a1.23 1.23 0 0 1 .58-.54q.38-.17.75-.37a7.93 7.93 0 0 0 .77-.44 6 6 0 0 0 .69-.52 11.9 11.9 0 0 0 1.52-1.35q.69-.73 1.35-1.52.92-1.08 1.88-2.15t1.83-2.15q1-1.17 1.83-2.35l1.75-2.4q.75-1 1.44-2.1t1.48-2.1a6.53 6.53 0 0 1 .65-.77 2 2 0 0 1 .85-.48 3.16 3.16 0 0 1 1.06-.15 8.83 8.83 0 0 0 1.06 0 4.69 4.69 0 0 0 .83-.15 3.11 3.11 0 0 1 .83-.1v.25l-.19.54q-.1.29-.23.56a1.57 1.57 0 0 0-.12.31l-.4.88a5.93 5.93 0 0 0-.31.88q-.29 1.13-.48 2.25t-.4 2.25q-.33 1.83-.71 3.58a17.93 17.93 0 0 1-1.12 3.46 12.47 12.47 0 0 1-1.54 2.58 11.43 11.43 0 0 1-2.17 2.17 9.06 9.06 0 0 1-2.67 1.4 6.42 6.42 0 0 1-3.22.16zM373.89 125.7a5.11 5.11 0 0 1-2.29-1.29 3.46 3.46 0 0 1-1.08-2.37 8.31 8.31 0 0 1 .08-1.65 14.9 14.9 0 0 1 .33-1.65 11.5 11.5 0 0 1 1-2.83 18.76 18.76 0 0 1 3.75-5q1.29-1.21 2.58-2.21.79-.63 1.69-1.21a16.21 16.21 0 0 1 1.85-1 12.88 12.88 0 0 1 2-.75 8.46 8.46 0 0 1 2-.33 6.47 6.47 0 0 1 2.29.33 3.32 3.32 0 0 1 1.58 1.33 4.27 4.27 0 0 1 .71 2.83 18.12 18.12 0 0 1-.58 2.92 19.4 19.4 0 0 1-2.54 5.58 16.68 16.68 0 0 1-4.25 4.46 23.28 23.28 0 0 1-3.37 2 12.34 12.34 0 0 1-3.71 1.13 8.23 8.23 0 0 1-1 0 3.66 3.66 0 0 1-1.04-.29zm3.46-2.17a7.82 7.82 0 0 0 2.69-1.92 23.62 23.62 0 0 0 2.06-2.61c.22-.31.42-.61.6-.92s.37-.61.56-.92q.71-1.12 1.31-2.33t1.15-2.42l.63-1.67a6.77 6.77 0 0 0 .38-1.75 3.36 3.36 0 0 0-.15-1.19 1.2 1.2 0 0 0-.77-.85 1.73 1.73 0 0 0-1.46.25 9.19 9.19 0 0 0-1.21.92q-.58.58-1.17 1.1a11.66 11.66 0 0 0-1.08 1.1 24.1 24.1 0 0 0-2 2.46q-.92 1.29-1.71 2.63a26.33 26.33 0 0 0-1.29 2.4q-.58 1.23-1.08 2.48a9.11 9.11 0 0 0-.44 1.54 1.87 1.87 0 0 0 .27 1.54 1.24 1.24 0 0 0 .83.46 2.71 2.71 0 0 0 1 0 9.28 9.28 0 0 0 .88-.29z"/><path d="M372.1 138.58a7.35 7.35 0 0 1-1.71-.35 4.17 4.17 0 0 1-1.5-.94 3.25 3.25 0 0 1-.75-1 5.69 5.69 0 0 1-.42-1.21 1.92 1.92 0 0 1 .21-1.29 2.72 2.72 0 0 1 .9-1 2.82 2.82 0 0 1 1.23-.46 1.72 1.72 0 0 1 1.25.33 1.12 1.12 0 0 1 .56 1 4.51 4.51 0 0 1-.19 1.1 8.58 8.58 0 0 0-.25 1.08.83.83 0 0 0 .38.85 3 3 0 0 0 2.33.52 6.88 6.88 0 0 0 2.44-1 12 12 0 0 0 2.17-1.75 15.1 15.1 0 0 0 1.56-1.83q2.29-3.42 4.58-6.75t4.46-6.83q1-1.62 2-3.31t1.85-3.44q.42-.79.88-1.52l.92-1.48.25-.44a7.87 7.87 0 0 0 .4-.77l.33-.73c.1-.21.13-.31.1-.31H395.21a3.39 3.39 0 0 1-1.62-.12q-.33-.21 0-.92a.76.76 0 0 1 .56-.5 13.45 13.45 0 0 1 1.77-.12h1.5q.38-.42.77-.79a6 6 0 0 0 .73-.83q1.13-1.5 2.25-3t2.37-2.77a32.76 32.76 0 0 1 2.6-2.6 25.2 25.2 0 0 1 3-2.27q1.08-.71 2.25-1.37a6.65 6.65 0 0 1 2.5-.83l1-.12a4.49 4.49 0 0 1 1 0 2.31 2.31 0 0 1 .9.25 1.35 1.35 0 0 1 .6.75 1.91 1.91 0 0 1 .1.92 3 3 0 0 1-.27.9 5.14 5.14 0 0 1-.5.83 6 6 0 0 1-.58.69 4.48 4.48 0 0 1-.52.52 4.12 4.12 0 0 1-.73.52 1.3 1.3 0 0 1-.71.19q-.33 0-.46-.52a1 1 0 0 1 0-.54q.06-.29.1-.54a2.82 2.82 0 0 0 0-1.08c-.08-.33-.36-.53-.83-.58a1.9 1.9 0 0 0-1.54.46q-.71.58-1.25 1.13l-1.21 1.27a11.41 11.41 0 0 0-1.12 1.35q-.83 1.21-1.56 2.48t-1.56 2.48l-.56.9-.56.9a4.12 4.12 0 0 0-.54 1q-.08.33.88.42a9.44 9.44 0 0 0 1.06-.08 1.15 1.15 0 0 1 1 .21q.46.46.29.73a1.09 1.09 0 0 1-.65.42 6.92 6.92 0 0 1-1.19.23l-1.37.15q-.67.06-1.17.15c-.33.06-.53.15-.58.29l-.15.27a3.35 3.35 0 0 0-.19.4 31.26 31.26 0 0 0-2 3.38q-.87 1.75-1.83 3.46t-2 3.56q-1 1.77-2.1 3.52-2 3.08-4.25 6.19a31.65 31.65 0 0 1-5.12 5.48 24.4 24.4 0 0 1-5.37 3.4 17.78 17.78 0 0 1-3.08 1.08 11.23 11.23 0 0 1-3.17.23zM420.6 125.87l-.83-.19a2.83 2.83 0 0 1-.77-.31 2.5 2.5 0 0 1-.62-.52 1.92 1.92 0 0 1-.4-.77 2.23 2.23 0 0 1 .13-1.52 2.92 2.92 0 0 1 1-1.23q.71-.5 1-.17a2.38 2.38 0 0 1 .46 1q.17.63.33 1.29a1.07 1.07 0 0 0 .63.83 1.12 1.12 0 0 0 .94-.08 3.44 3.44 0 0 0 .9-.69 7 7 0 0 0 .75-.94l.54-.83a13.07 13.07 0 0 0 1.15-2.54q.44-1.33.77-2.67.46-1.79 1-3.65a23.35 23.35 0 0 0 .73-3.73 1.47 1.47 0 0 0-.42.42 2.48 2.48 0 0 0-.29.5 7.66 7.66 0 0 1-.5.6 7.82 7.82 0 0 0-.5.6q-.46.58-.85 1.19t-.85 1.19l-1.9 2.24q-.9 1.19-1.77 2.31l-1.58 2q-.79 1-1.67 2-.87 1-1.81 1.85a11.09 11.09 0 0 1-2 1.5 1.88 1.88 0 0 1-.67.33 1 1 0 0 1-.75 0 .49.49 0 0 1-.25-.33 1.26 1.26 0 0 1 0-.46 1.89 1.89 0 0 1 .15-.48l.19-.4a1.23 1.23 0 0 1 .58-.54q.38-.17.75-.37a7.93 7.93 0 0 0 .77-.44 6 6 0 0 0 .69-.52 11.9 11.9 0 0 0 1.52-1.35q.69-.73 1.35-1.52.92-1.08 1.88-2.15t1.83-2.15q1-1.17 1.83-2.35l1.75-2.4q.75-1 1.44-2.1t1.48-2.1a6.53 6.53 0 0 1 .65-.77 2 2 0 0 1 .85-.48 3.16 3.16 0 0 1 1.06-.15 8.83 8.83 0 0 0 1.06 0 4.69 4.69 0 0 0 .83-.15 3.11 3.11 0 0 1 .83-.1v.25l-.19.54q-.1.29-.23.56a1.57 1.57 0 0 0-.12.31l-.4.88a5.93 5.93 0 0 0-.31.88q-.29 1.13-.48 2.25t-.4 2.25q-.33 1.83-.71 3.58a17.93 17.93 0 0 1-1.12 3.46 12.47 12.47 0 0 1-1.54 2.58 11.43 11.43 0 0 1-2.17 2.17 9.06 9.06 0 0 1-2.67 1.4 6.42 6.42 0 0 1-3.05.19zM453.85 114.29q.5-.42.83 0a.59.59 0 0 1 .13.48 1.89 1.89 0 0 1-.19.56 3.59 3.59 0 0 1-.33.54l-.31.42a8.75 8.75 0 0 1-.73 1.08q-.4.5-.85 1l-1.77 2.17q-.9 1.08-1.85 2.13a16.7 16.7 0 0 1-1.87 1.83 5.89 5.89 0 0 1-2.29 1.21 4.48 4.48 0 0 1-1.83 0 2.43 2.43 0 0 1-1.58-.92 2.54 2.54 0 0 1-.52-1.71 7.84 7.84 0 0 1 .23-1.83 2.76 2.76 0 0 0 .13-.81s-.17.09-.42.4l-.52.56a8.86 8.86 0 0 1-.73.73 19.18 19.18 0 0 1-2.25 2.08l-1.29.94a3.82 3.82 0 0 1-1.46.65 7.2 7.2 0 0 1-1 .1 2.67 2.67 0 0 1-1-.15l-.4-.17a3.56 3.56 0 0 1-.4-.21 1.7 1.7 0 0 1-.65-.71 3.32 3.32 0 0 1-.35-.92 4.84 4.84 0 0 1-.06-2 9.5 9.5 0 0 1 .6-2 14.85 14.85 0 0 1 1-1.87q.54-.9 1-1.77t1.21-1.94q.63-1 1.21-2t1.1-1.75a16.85 16.85 0 0 0 1-1.83 7.07 7.07 0 0 0 .35-.73 4.22 4.22 0 0 0 .23-.77 6.54 6.54 0 0 0 .15-1.08q0-.5.73-.67a2.75 2.75 0 0 1 1.06 0 6.7 6.7 0 0 0 1.06.08 3 3 0 0 0 .5-.06 5.33 5.33 0 0 1 .67-.08 1.69 1.69 0 0 1 .6.06.5.5 0 0 1 .35.33 1.62 1.62 0 0 1 0 1.13q-.19.67-.35 1.13a13.45 13.45 0 0 1-1 2.06l-1.17 1.94q-.67 1.08-1.27 2.17t-1.31 2.17l-1.4 2.15a23.21 23.21 0 0 0-1.27 2.23q-.21.46-.46 1.13a1.22 1.22 0 0 0 0 1.13.77.77 0 0 0 1 .38 4.73 4.73 0 0 0 1.27-.71 9.08 9.08 0 0 0 1.21-1.08l.79-.83a5.33 5.33 0 0 0 .67-.81q.29-.44.63-.85.58-.71 1.13-1.46l1.08-1.5a24.51 24.51 0 0 0 1.42-2.17q1-1.58 2-3.23a16 16 0 0 0 1.58-3.48 5 5 0 0 1 .19-.54l.15-.33c.08-.19.15-.35.21-.46a.91.91 0 0 1 .38-.33 4.36 4.36 0 0 1 1-.25 2.75 2.75 0 0 1 .75-.06l.75.06a3.17 3.17 0 0 0 .81 0 5.29 5.29 0 0 1 .81-.06.68.68 0 0 1 .56.19.73.73 0 0 1 .15.46 2.55 2.55 0 0 1-.08.6c-.06.22-.11.42-.17.58a3.39 3.39 0 0 1-.44 1c-.21.33-.41.67-.6 1q-.67 1.13-1.29 2a32.74 32.74 0 0 0-2 3.29q-.9 1.71-1.94 3.29a15.76 15.76 0 0 0-1.58 3.13q-.83 2.21.08 2.38a1 1 0 0 0 .88-.19l.75-.56a6.11 6.11 0 0 0 .75-.71 8.58 8.58 0 0 1 .71-.71l.63-.71.63-.71q.87-1.08 1.67-2.12a25.86 25.86 0 0 0 1.5-2.21 2.88 2.88 0 0 1 .29-.44 3 3 0 0 1 .41-.46z"/><path d="M455 125.91a5.31 5.31 0 0 1-1.94-.65 3.27 3.27 0 0 1-1.4-1.48 5.11 5.11 0 0 1-.46-1.92 9.25 9.25 0 0 1 .13-2 13 13 0 0 1 .58-2.12 22.72 22.72 0 0 1 1.71-3.44 18.29 18.29 0 0 1 2.33-3.06 37.4 37.4 0 0 1 2.83-2.71 17.21 17.21 0 0 1 3.25-2.21 12.14 12.14 0 0 1 1.92-.79 11.65 11.65 0 0 1 3.5-.46l.69.08a4.68 4.68 0 0 1 .77.15 2.75 2.75 0 0 1 .69.29 1.33 1.33 0 0 1 .48.48 4 4 0 0 1 .25.63 1.37 1.37 0 0 1 0 .67 3.44 3.44 0 0 1-.58 1.27q-.42.56-.79 1.15-.29.42-.61.92a.91.91 0 0 1-.89.46.43.43 0 0 1-.4-.17 1.1 1.1 0 0 1-.15-.42 1.53 1.53 0 0 1 0-.5 2.85 2.85 0 0 0 0-.46 7.18 7.18 0 0 0 0-1.21 2.45 2.45 0 0 0-.44-1.17 1.06 1.06 0 0 0-1.15-.46 3.41 3.41 0 0 0-1.27.67 7.44 7.44 0 0 0-1.15 1.15q-.52.65-.81 1a29.25 29.25 0 0 0-2.79 3.73q-1.25 2-2.37 4a21.86 21.86 0 0 0-.92 2 4.12 4.12 0 0 0-.25 2.17 1.53 1.53 0 0 0 .9 1.42 3.24 3.24 0 0 0 1.73.13 7.88 7.88 0 0 0 1.92-.6 8.12 8.12 0 0 0 1.46-.81q.46-.33.9-.71l.9-.75.69-.67.69-.67q.38-.42.77-.81t.77-.81l1.51-1.62a13.15 13.15 0 0 0 1.31-1.73q.21-.42.38-.85a1.15 1.15 0 0 1 .63-.65c.22-.11.39-.1.5 0a.63.63 0 0 1 .13.5 1.76 1.76 0 0 1-.27.81c-.15.24-.31.47-.48.69q-.67 1-1.35 1.92a14.32 14.32 0 0 1-1.52 1.79q-1.46 1.5-3 3a37.39 37.39 0 0 1-3.19 2.77l-1 .73a4.46 4.46 0 0 1-1.08.56q-.58.25-1.14.46a5.46 5.46 0 0 1-1.23.29z"/><path d="M470.06 125.91a5.31 5.31 0 0 1-1.94-.65 3.27 3.27 0 0 1-1.4-1.48 5.08 5.08 0 0 1-.46-1.92 9.19 9.19 0 0 1 .13-2 12.92 12.92 0 0 1 .58-2.12 22.67 22.67 0 0 1 1.71-3.44 18.39 18.39 0 0 1 2.33-3.06 37.41 37.41 0 0 1 2.83-2.71 17.18 17.18 0 0 1 3.25-2.21 12.09 12.09 0 0 1 1.92-.79 11.66 11.66 0 0 1 3.5-.46l.69.08a4.69 4.69 0 0 1 .77.15 2.76 2.76 0 0 1 .69.29 1.33 1.33 0 0 1 .48.48 3.87 3.87 0 0 1 .25.63 1.37 1.37 0 0 1 0 .67 3.44 3.44 0 0 1-.58 1.27q-.42.56-.79 1.15-.29.42-.6.92a.91.91 0 0 1-.9.46.43.43 0 0 1-.4-.17 1.12 1.12 0 0 1-.15-.42 1.48 1.48 0 0 1 0-.5 2.84 2.84 0 0 0 0-.46 7.08 7.08 0 0 0 0-1.21 2.45 2.45 0 0 0-.44-1.17 1.06 1.06 0 0 0-1.15-.46 3.41 3.41 0 0 0-1.27.67 7.49 7.49 0 0 0-1.15 1.15q-.52.65-.81 1a29.35 29.35 0 0 0-2.79 3.73q-1.25 2-2.37 4a21.86 21.86 0 0 0-.92 2 4.11 4.11 0 0 0-.25 2.17 1.53 1.53 0 0 0 .9 1.42 3.25 3.25 0 0 0 1.73.13 7.86 7.86 0 0 0 1.92-.6 8.17 8.17 0 0 0 1.46-.81q.46-.33.9-.71l.9-.75.69-.67.69-.67c.25-.28.51-.55.77-.81s.52-.53.77-.81l1.45-1.62a13.32 13.32 0 0 0 1.31-1.73q.21-.42.38-.85a1.14 1.14 0 0 1 .63-.65q.33-.17.5 0a.63.63 0 0 1 .13.5 1.77 1.77 0 0 1-.27.81c-.15.24-.31.47-.48.69q-.67 1-1.35 1.92a14.31 14.31 0 0 1-1.52 1.79q-1.46 1.5-3 3a37.39 37.39 0 0 1-3.19 2.77l-1 .73a4.44 4.44 0 0 1-1.08.56c-.39.17-.77.32-1.15.46a5.46 5.46 0 0 1-1.23.29z"/><path d="M485.48 125.91a4.56 4.56 0 0 1-2-.62 3.58 3.58 0 0 1-1.62-1.79 5.58 5.58 0 0 1-.35-2.31 9.53 9.53 0 0 1 .46-2.46 17.42 17.42 0 0 1 .85-2.19 23.49 23.49 0 0 1 2.81-4.81 18.08 18.08 0 0 1 4.06-3.9 16.46 16.46 0 0 1 3.19-1.77 12.89 12.89 0 0 1 3.52-.94q2-.21 2.54.88a3.85 3.85 0 0 1 .54 2.19 4.53 4.53 0 0 1-.65 2 7.28 7.28 0 0 1-1.5 1.75 17.83 17.83 0 0 1-2 1.5 17.17 17.17 0 0 1-2.15 1.19q-1.08.5-1.92.83l-1.73.67a6 6 0 0 0-1.35.71 4.13 4.13 0 0 0-1 1.06 5.8 5.8 0 0 0-.73 1.69 3.91 3.91 0 0 0-.19 1.31 2.82 2.82 0 0 0 .29 1.19 2.08 2.08 0 0 0 .77.85 2.48 2.48 0 0 0 1.33.31 4.22 4.22 0 0 0 1.54-.29 6.9 6.9 0 0 0 1.42-.75 11.13 11.13 0 0 0 1.27-1A14 14 0 0 0 494 120q1.21-1.33 2.35-2.75t2.15-2.87.31-.56a6.91 6.91 0 0 1 .48-.79 1 1 0 0 1 .5-.42q.25-.06.38.52a1.73 1.73 0 0 1-.35 1.44q-.52.73-.94 1.23-1.08 1.33-2.1 2.75t-2.15 2.71a19.08 19.08 0 0 1-2.48 2.38 11.84 11.84 0 0 1-3 1.75 9.05 9.05 0 0 1-1.77.48 6.4 6.4 0 0 1-1.9.04zm3.5-11a3.3 3.3 0 0 0 .73-.29l.48-.25a12.6 12.6 0 0 0 2.27-1.71 17.63 17.63 0 0 0 1.9-2.08 11.48 11.48 0 0 0 1-1.42 3.59 3.59 0 0 0 .5-1.62.89.89 0 0 0-.19-.65.55.55 0 0 0-.6-.23 2.27 2.27 0 0 0-1 .6l-.83.81-.5.56-.46.52q-.67.83-1.29 1.65t-1.21 1.69l-.35.54a8.69 8.69 0 0 0-.5.88 2.55 2.55 0 0 0-.27.77q-.1.32.34.23z"/><path d="M496.31 125.87l-.83-.19a2.82 2.82 0 0 1-.77-.31 2.48 2.48 0 0 1-.62-.52 1.93 1.93 0 0 1-.4-.77 2.23 2.23 0 0 1 .13-1.52 2.93 2.93 0 0 1 1-1.23q.71-.5 1-.17a2.39 2.39 0 0 1 .46 1q.17.63.33 1.29a1.07 1.07 0 0 0 .63.83 1.12 1.12 0 0 0 .94-.08 3.45 3.45 0 0 0 .9-.69 7 7 0 0 0 .75-.94l.54-.83a13 13 0 0 0 1.15-2.54q.44-1.33.77-2.67.46-1.79 1-3.65a23.3 23.3 0 0 0 .73-3.73 1.48 1.48 0 0 0-.42.42 2.49 2.49 0 0 0-.29.5 7.66 7.66 0 0 1-.5.6 7.82 7.82 0 0 0-.5.6q-.46.58-.85 1.19t-.85 1.19l-1.73 2.27q-.9 1.19-1.77 2.31l-1.58 2q-.79 1-1.67 2-.88 1-1.81 1.85a11.06 11.06 0 0 1-2 1.5 1.86 1.86 0 0 1-.67.33 1 1 0 0 1-.75 0 .49.49 0 0 1-.25-.33 1.24 1.24 0 0 1 0-.46 1.9 1.9 0 0 1 .15-.48l.19-.4a1.22 1.22 0 0 1 .58-.54q.38-.17.75-.37a8 8 0 0 0 .77-.44 6 6 0 0 0 .69-.52 11.93 11.93 0 0 0 1.52-1.35q.69-.73 1.35-1.52.92-1.08 1.88-2.15t1.83-2.15q1-1.17 1.83-2.35l1.75-2.4q.75-1 1.44-2.1t1.48-2.1a6.53 6.53 0 0 1 .65-.77 2 2 0 0 1 .85-.48 3.16 3.16 0 0 1 1.06-.15 8.83 8.83 0 0 0 1.06 0 4.68 4.68 0 0 0 .83-.15 3.11 3.11 0 0 1 .83-.1v.25l-.19.54q-.1.29-.23.56a1.6 1.6 0 0 0-.12.31l-.4.88a5.87 5.87 0 0 0-.31.88q-.29 1.13-.48 2.25t-.4 2.25q-.33 1.83-.71 3.58a17.93 17.93 0 0 1-1.12 3.46 12.49 12.49 0 0 1-1.54 2.58 11.44 11.44 0 0 1-2.17 2.17 9.06 9.06 0 0 1-2.67 1.4 6.42 6.42 0 0 1-3.22.16z"/><path d="M509.35 125.87l-.83-.19a2.82 2.82 0 0 1-.77-.31 2.48 2.48 0 0 1-.62-.52 1.93 1.93 0 0 1-.4-.77 2.23 2.23 0 0 1 .13-1.52 2.93 2.93 0 0 1 1-1.23q.71-.5 1-.17a2.39 2.39 0 0 1 .46 1q.17.63.33 1.29a1.07 1.07 0 0 0 .63.83 1.12 1.12 0 0 0 .94-.08 3.45 3.45 0 0 0 .9-.69 7 7 0 0 0 .75-.94l.54-.83a13 13 0 0 0 1.15-2.54q.44-1.33.77-2.67.46-1.79 1-3.65a23.3 23.3 0 0 0 .73-3.73 1.48 1.48 0 0 0-.42.42 2.49 2.49 0 0 0-.29.5 7.66 7.66 0 0 1-.5.6 7.82 7.82 0 0 0-.5.6q-.46.58-.85 1.19t-.85 1.19l-1.73 2.27q-.9 1.19-1.77 2.31l-1.58 2q-.79 1-1.67 2-.88 1-1.81 1.85a11.06 11.06 0 0 1-2 1.5 1.86 1.86 0 0 1-.67.33 1 1 0 0 1-.75 0 .49.49 0 0 1-.25-.33 1.24 1.24 0 0 1 0-.46 1.9 1.9 0 0 1 .15-.48l.19-.4a1.22 1.22 0 0 1 .58-.54q.38-.17.75-.37a8 8 0 0 0 .77-.44 6 6 0 0 0 .69-.52 11.93 11.93 0 0 0 1.52-1.35q.69-.73 1.35-1.52.92-1.08 1.88-2.15t1.83-2.15q1-1.17 1.83-2.35l1.75-2.4q.75-1 1.44-2.1t1.48-2.1a6.53 6.53 0 0 1 .65-.77 2 2 0 0 1 .72-.48 3.16 3.16 0 0 1 1.06-.15 8.83 8.83 0 0 0 1.06 0 4.68 4.68 0 0 0 .83-.15 3.11 3.11 0 0 1 .83-.1v.25l-.19.54q-.1.29-.23.56a1.6 1.6 0 0 0-.12.31l-.4.88a5.87 5.87 0 0 0-.31.88q-.29 1.13-.48 2.25t-.4 2.25q-.33 1.83-.71 3.58a17.93 17.93 0 0 1-1.12 3.46 12.49 12.49 0 0 1-1.54 2.58 11.44 11.44 0 0 1-2.17 2.17 9.06 9.06 0 0 1-2.67 1.4 6.42 6.42 0 0 1-3.09.16z"/></g><ellipse cx="319.04" cy="56.32" rx="22.5" ry="25" fill="#e57200" stroke="#e57200" stroke-miterlimit="10"/></g><g id="Layer_3" data-name="Layer 3" fill="#f2f2f2"><path d="M298.69 43.61a9.45 9.45 0 0 1-1.73.64c-.7 0-.58-1.09-.51-1.47.13-1.86 1.41-2.43 2.94-3.33 2.11-1.22 9.34-5.5 11.14-5.5s2.94 3.46 2.94 4.42c0 1.86 0 1.66-10 18.75-2.24 3.78-7.49 12.8-7.49 17.09 0 .77.19 1.47.19 2.24a.81.81 0 0 1-.9.9 4.07 4.07 0 0 1-1.34-.58c-2.43-1.34-5.18-1.79-5.18-5.12s2.75-10.3 4.48-13.18a196.35 196.35 0 0 1 11.71-17l-.13-.13zM323.28 37.31c2.75-2.88 4-2.56 7.74-2.56h15.42c-4.22 7.62-4.29 8.64-10.11 8.58l-10.88-.13a21.64 21.64 0 0 0-5.45 6.53 35.22 35.22 0 0 1 8.9-1.34c5.5 0 10.5 2.75 10.5 8.7a15.29 15.29 0 0 1-2.3 7.87c-3.9 6.53-12.67 11.84-25.53 11.84-6.27 0-6.59-1.41-6.59-5.5 0-4.67 9.09-7.1 10-7.1.38 0 1 .13 1 .7s-1 1.15-1.34 1.41L310.8 69l.13.13c15.23-1.66 23.81-8.32 23.81-11.84 0-1.73-3.14-2.43-4.42-2.43a40.83 40.83 0 0 0-7.94 1C320 56.32 318 57 317.2 57c-2.56 0-3.65-4.86-3.65-6.85s1.79-4.35 3.14-5.76z"/></g></g></svg>