<svg xmlns="http://www.w3.org/2000/svg" viewBox="0 0 126.34 154.5"><title>Asset 1</title><g id="Layer_2" data-name="Layer 2"><g id="Layer_1-2" data-name="Layer 1"><path d="M12.51 148.19c0-.88-.62-1.34-1.62-1.34h-2v2.69h2.09c1 0 1.58-.54 1.58-1.33zm0 6.17l-2-3H8.84v3H6.78V145h4.29c2.21 0 3.54 1.17 3.54 3.1a2.91 2.91 0 0 1-2 2.91l2.29 3.35zM18.32 154.37v-9.38h7.07v1.83h-5.02v1.91h4.42v1.83h-4.42v1.97h5.09v1.84h-7.14zM33.29 147.4l-1.24 3h2.49zm2.86 7l-.85-2.09h-3.93l-.85 2.09h-2.09l4-9.37h1.87l4 9.37zM41.6 154.37v-9.38h2.06v7.5h4.68v1.88H41.6zM57.63 154.37v-9.38h7.07v1.83h-5.02v1.91h4.42v1.83h-4.42v1.97h5.09v1.84h-7.14zM71.8 154.5a6 6 0 0 1-4-1.5l1.2-1.46a4.31 4.31 0 0 0 2.8 1.14c.85 0 1.36-.33 1.36-.88 0-.52-.32-.79-1.89-1.19-1.89-.48-3.11-1-3.11-2.87 0-1.7 1.37-2.83 3.28-2.83A5.42 5.42 0 0 1 75 146l-1.07 1.56a4.41 4.41 0 0 0-2.44-.93c-.79 0-1.2.36-1.2.82 0 .62.4.82 2 1.23 1.9.49 3 1.18 3 2.81 0 1.86-1.42 2.9-3.44 2.9M83.14 146.89v7.47h-2.06v-7.47h-2.85v-1.9H86v1.9h-2.86zM93.58 147.4l-1.25 3h2.49zm2.86 7l-.85-2.09h-3.94l-.85 2.09h-2.09l4-9.37h1.89l4 9.37zM106.13 146.89v7.47h-2.07v-7.47h-2.85v-1.9h7.77v1.9h-2.85zM112.42 154.37v-9.38h7.07v1.83h-5.02v1.91h4.42v1.83h-4.42v1.97h5.09v1.84h-7.14zM6.78 123.26V84.85h28.96v7.52H15.17v7.79h18.1v7.52h-18.1v8.07h20.85v7.51H6.78zM66.3 98.07c0 3.24-2.36 5.43-6.48 5.43h-8.55v-11h8.39c4.12 0 6.64 1.87 6.64 5.49zm6.84 21l-3.27-4.78-3.24-4.74a11.93 11.93 0 0 0 8.23-11.91v-.11c0-7.9-5.43-12.67-14.49-12.67H42.82v35c0 2.58 2.1 3.41 4.68 3.41h3.77V111h6.64l6.81 10.17.12.18a4.57 4.57 0 0 0 3.74 1.94H76zM94.17 107.15l5.07-12.37 5.07 12.37zm9-22.3h-7.69L83 114.14l-2.73 6.42-1.15 2.71h5.4a4.7 4.7 0 0 0 4.32-2.86l2.32-5.68h16.14l3.48 8.56h8.77z" fill="#1a2e70"/><path fill="#d60a26" d="M6.78 130.29h112.78v7.68H6.78zM0 81.27l63.17-28.54V0L0 45.41v35.86z"/><path fill="#940d33" d="M126.33 81.27L63.17 52.73V0l63.16 45.41v35.86z"/></g></g></svg>